# Exported from Wings 3D 1.2
mtllib background.mtl
o cube1
#4 vertices, 2 faces
v -0.500800000 1.9299708e-3 0.500800000
v 0.500800000 1.9299708e-3 0.500800000
v -0.500800000 1.9299708e-3 -0.500800000
v 0.500800000 1.9299708e-3 -0.500800000
vt 0.0000000e+0 0.0000000e+0
vt 0.0000000e+0 1.00000000
vt 1.00000000 1.00000000
vt 1.00000000 2.2204460e-16
vn 0.0000000e+0 1.00000000 0.0000000e+0
vn 0.0000000e+0 1.00000000 0.0000000e+0
vn 0.0000000e+0 1.00000000 0.0000000e+0
vn 0.0000000e+0 1.00000000 0.0000000e+0
g cube1_cube1_auv
usemtl cube1_auv
s 1
f 1/1/1 4/3/4 3/2/3
f 2/4/2 4/3/4 1/1/1
