# Exported from Wings 3D 1.2
mtllib bird.mtl
o tetrahedron1
#4 vertices, 4 faces
v -9.5685785e-4 5.80456647 -4.11589036
v 3.8170205e-3 7.7445873e-2 10.49091868
v -5.04495686 -2.93140465 -4.02306539
v 5.04304314 -2.93140465 -4.02306539
vt 3.0622222e-2 0.52463503
vt 4.2611111e-2 0.68727680
vt 4.9255556e-2 0.34891062
vt 5.2527882e-2 0.0000000e+0
vt 0.21707409 0.98945556
vt 0.39153708 0.68727680
vt 0.54222378 0.34717729
vt 0.54549576 0.69608791
vt 0.56418439 0.17762390
vt 0.56476217 0.53348671
vt 0.73906004 2.0800000e-2
vt 0.91368814 0.53348671
vn 8.1432219e-5 0.84586512 -0.53339685
vn 1.5916180e-4 8.7268509e-3 0.99996191
vn -0.73528213 -0.43111162 -0.52297511
vn 0.73515421 -0.43094708 -0.52329045
g tetrahedron1_tetrahedron1_auv
usemtl tetrahedron1_auv
s 1
f 1/3/1 3/4/3 2/9/2
f 1/5/1 4/2/4 3/6/3
f 2/1/2 4/7/4 1/8/1
f 3/12/3 4/10/4 2/11/2
