# Exported from Wings 3D 1.3.0.1
mtllib fan.mtl
o cylinder10
#60 vertices, 104 faces
v 1.00000000 0.45400000 0.0000000e+0
v 0.50000000 0.45400000 0.86602540
v -0.50000000 0.45400000 0.86602540
v -1.00000000 0.45400000 1.2246468e-16
v -0.50000000 0.45400000 -0.86602540
v 0.50000000 0.45400000 -0.86602540
v 1.00000000 -0.45400000 0.0000000e+0
v 0.50000000 -0.45400000 0.86602540
v -0.50000000 -0.45400000 0.86602540
v -1.00000000 -0.45400000 1.2246468e-16
v -0.50000000 -0.45400000 -0.86602540
v 0.50000000 -0.45400000 -0.86602540
v 1.05713693 0.45400000 3.2988024e-2
v 0.55713693 0.45400000 0.89901343
v 1.05713693 -0.45400000 3.2988024e-2
v 0.55713693 -0.45400000 0.89901343
v 8.06817489 0.45400000 4.08081267
v 7.56817489 0.45400000 4.94683808
v 7.56817489 -0.45400000 4.94683808
v 8.06817489 -0.45400000 4.08081267
v 3.58414959 0.79904000 1.05317325
v 5.92116224 0.79904000 2.40244814
v 2.70414959 0.79904000 2.57737797
v 5.04116224 0.79904000 3.92665285
v 2.70414959 -0.79904000 2.57737797
v 5.04116224 -0.79904000 3.92665285
v 3.58414959 -0.79904000 1.05317325
v 5.92116224 -0.79904000 2.40244814
v -0.55713693 0.45400000 0.89901343
v -1.05713693 0.45400000 3.2988024e-2
v -0.55713693 -0.45400000 0.89901343
v -1.05713693 -0.45400000 3.2988024e-2
v -7.56817489 0.45400000 4.94683808
v -8.06817489 0.45400000 4.08081267
v -8.06817489 -0.45400000 4.08081267
v -7.56817489 -0.45400000 4.94683808
v -2.70414959 0.79904000 2.57737797
v -5.04116224 0.79904000 3.92665285
v -3.58414959 0.79904000 1.05317325
v -5.92116224 0.79904000 2.40244814
v -3.58414959 -0.79904000 1.05317325
v -5.92116224 -0.79904000 2.40244814
v -2.70414959 -0.79904000 2.57737797
v -5.04116224 -0.79904000 3.92665285
v -0.50000000 0.45400000 -0.93200145
v 0.50000000 0.45400000 -0.93200145
v -0.50000000 -0.45400000 -0.93200145
v 0.50000000 -0.45400000 -0.93200145
v -0.50000000 0.45400000 -9.02765075
v 0.50000000 0.45400000 -9.02765075
v 0.50000000 -0.45400000 -9.02765075
v -0.50000000 -0.45400000 -9.02765075
v -0.88000000 0.79904000 -3.63055122
v -0.88000000 0.79904000 -6.32910099
v 0.88000000 0.79904000 -3.63055122
v 0.88000000 0.79904000 -6.32910099
v 0.88000000 -0.79904000 -3.63055122
v 0.88000000 -0.79904000 -6.32910099
v -0.88000000 -0.79904000 -3.63055122
v -0.88000000 -0.79904000 -6.32910099
vt 0.0000000e+0 0.73003729
vt 0.0000000e+0 0.82002486
vt 7.7931521e-2 0.86501865
vt 7.7931521e-2 0.68504351
vt 0.15586304 0.46007459
vt 0.15586304 0.55006216
vt 0.15586304 1.00000000
vt 0.15586304 0.64004972
vt 0.15586304 0.73003729
vt 0.15586304 0.82002486
vt 0.15586304 0.91001243
vt 0.23757175 0.46007459
vt 0.23757175 0.55006216
vt 0.23757175 0.91001243
vt 0.23757175 1.00000000
vt 0.23757175 0.64004972
vt 0.23757175 0.82002486
vt 0.23757175 0.73003729
vt 0.31550327 0.86501865
vt 0.31550327 0.68504351
vt 0.39343479 0.73003729
vt 0.39343479 0.82002486
vt 0.39562909 0.56935753
vt 0.39562909 0.32652160
vt 0.42982437 0.81417042
vt 0.42982437 8.1708712e-2
vt 0.51981194 0.81417042
vt 0.51981194 8.1708712e-2
vt 0.55400721 0.56935753
vt 0.55400721 0.32652160
vt 0.58505652 0.81458927
vt 0.58505652 8.1289858e-2
vt 0.66676523 0.81458927
vt 0.66676523 8.1289858e-2
vt 0.69781455 0.56935753
vt 0.69781455 0.32652160
vt 0.73200982 0.89587913
vt 0.73200982 0.81417042
vt 0.73200982 8.1708712e-2
vt 0.73200982 0.0000000e+0
vt 0.82199739 0.89587913
vt 0.82199739 0.81417042
vt 0.82199739 8.1708712e-2
vt 0.82199739 0.0000000e+0
vt 0.85619267 0.32652160
vt 0.85619267 0.56935753
vt 0.88724198 0.81458927
vt 0.88724198 8.1289858e-2
vt 0.96895069 0.81458927
vt 0.96895069 8.1289858e-2
vt 1.00000000 0.32652160
vt 1.00000000 0.56935753
vn 0.65465367 0.75592895 -1.4686870e-16
vn 0.37796447 0.65465367 0.65465367
vn -0.43301270 0.50000000 0.75000000
vn -0.86602540 0.50000000 1.9428903e-16
vn -0.25000000 0.86602540 -0.43301270
vn 0.48038446 0.27735010 -0.83205029
vn 0.96076892 -0.27735010 -2.0014830e-16
vn 0.25000000 -0.86602540 0.43301270
vn -0.43301270 -0.50000000 0.75000000
vn -0.86602540 -0.50000000 2.2204460e-16
vn -0.37796447 -0.65465367 -0.65465367
vn 0.32732684 -0.75592895 -0.56694671
vn -0.31844414 0.52513600 -0.78919295
vn -0.84268321 0.52513600 0.11881576
vn -0.31844414 -0.52513600 -0.78919295
vn -0.84268321 -0.52513600 0.11881576
vn 0.84268321 0.52513600 -0.11881576
vn 0.31844414 0.52513600 0.78919295
vn 0.31844414 -0.52513600 0.78919295
vn 0.84268321 -0.52513600 -0.11881576
vn 0.27030374 0.70426578 -0.65646447
vn 0.43336304 0.70426578 -0.56232214
vn -0.43336304 0.70426578 0.56232214
vn -0.27030374 0.70426578 0.65646447
vn -0.43336304 -0.70426578 0.56232214
vn -0.27030374 -0.70426578 0.65646447
vn 0.27030374 -0.70426578 -0.65646447
vn 0.43336304 -0.70426578 -0.56232214
vn 0.84268321 0.52513600 0.11881576
vn 0.31844414 0.52513600 -0.78919295
vn 0.84268321 -0.52513600 0.11881576
vn 0.31844414 -0.52513600 -0.78919295
vn -0.31844414 0.52513600 0.78919295
vn -0.84268321 0.52513600 -0.11881576
vn -0.84268321 -0.52513600 -0.11881576
vn -0.31844414 -0.52513600 0.78919295
vn 0.43336304 0.70426578 0.56232214
vn 0.27030374 0.70426578 0.65646447
vn -0.27030374 0.70426578 -0.65646447
vn -0.43336304 0.70426578 -0.56232214
vn -0.27030374 -0.70426578 -0.65646447
vn -0.43336304 -0.70426578 -0.56232214
vn 0.43336304 -0.70426578 0.56232214
vn 0.27030374 -0.70426578 0.65646447
vn -0.52423907 0.52513600 0.67037719
vn 0.52423907 0.52513600 0.67037719
vn -0.52423907 -0.52513600 0.67037719
vn 0.52423907 -0.52513600 0.67037719
vn -0.52423907 0.52513600 -0.67037719
vn 0.52423907 0.52513600 -0.67037719
vn 0.52423907 -0.52513600 -0.67037719
vn -0.52423907 -0.52513600 -0.67037719
vn -0.70366678 0.70426578 9.4142332e-2
vn -0.70366678 0.70426578 -9.4142332e-2
vn 0.70366678 0.70426578 9.4142332e-2
vn 0.70366678 0.70426578 -9.4142332e-2
vn 0.70366678 -0.70426578 9.4142332e-2
vn 0.70366678 -0.70426578 -9.4142332e-2
vn -0.70366678 -0.70426578 9.4142332e-2
vn -0.70366678 -0.70426578 -9.4142332e-2
g cylinder10_fan
usemtl fan
s 1
f 1/10/1 5/2/5 2/9/2
f 1/10/1 7/17/7 6/11/6
f 2/9/2 4/1/4 3/4/3
f 2/9/2 7/17/7 1/10/1
f 2/9/2 9/16/9 8/18/8
f 3/8/3 9/16/9 2/9/2
f 4/1/4 2/9/2 5/2/5
f 4/6/4 9/16/9 3/8/3
f 4/6/4 11/12/11 10/13/10
f 5/5/5 11/12/11 4/6/4
f 6/3/6 5/2/5 1/10/1
f 6/11/6 7/17/7 12/14/12
f 6/11/6 11/15/11 5/7/5
f 8/18/8 7/17/7 2/9/2
f 8/18/8 12/19/12 7/17/7
f 9/20/9 11/22/11 8/18/8
f 10/13/10 9/16/9 4/6/4
f 10/21/10 11/22/11 9/20/9
f 12/19/12 8/18/8 11/22/11
f 12/14/12 11/15/11 6/11/6
f 13/44/13 15/43/15 14/40/14
f 13/50/13 21/51/21 15/48/15
f 14/40/14 15/43/15 16/39/16
f 14/28/14 21/24/21 13/26/13
f 14/32/14 25/36/25 23/30/23
f 15/48/15 21/51/21 27/45/27
f 15/43/15 25/36/25 16/39/16
f 16/34/16 25/36/25 14/32/14
f 17/25/17 24/29/24 18/27/18
f 17/49/17 28/46/28 22/52/22
f 18/37/18 19/38/19 17/41/17
f 18/31/18 24/29/24 19/33/19
f 19/33/19 24/29/24 26/35/26
f 19/38/19 28/46/28 20/42/20
f 20/42/20 17/41/17 19/38/19
f 20/47/20 28/46/28 17/49/17
f 21/24/21 24/29/24 22/23/22
f 22/23/22 24/29/24 17/25/17
f 22/52/22 28/46/28 21/51/21
f 23/30/23 21/24/21 14/28/14
f 23/30/23 25/36/25 24/29/24
f 24/29/24 21/24/21 23/30/23
f 25/36/25 28/46/28 26/35/26
f 26/35/26 24/29/24 25/36/25
f 26/35/26 28/46/28 19/38/19
f 27/45/27 21/51/21 28/46/28
f 27/45/27 25/36/25 15/43/15
f 28/46/28 25/36/25 27/45/27
f 29/44/29 31/43/31 30/40/30
f 29/50/29 37/51/37 31/48/31
f 30/40/30 31/43/31 32/39/32
f 30/28/30 37/24/37 29/26/29
f 30/32/30 41/36/41 39/30/39
f 31/48/31 37/51/37 43/45/43
f 31/43/31 41/36/41 32/39/32
f 32/34/32 41/36/41 30/32/30
f 33/25/33 40/29/40 34/27/34
f 33/49/33 44/46/44 38/52/38
f 34/37/34 35/38/35 33/41/33
f 34/31/34 40/29/40 35/33/35
f 35/33/35 40/29/40 42/35/42
f 35/38/35 44/46/44 36/42/36
f 36/42/36 33/41/33 35/38/35
f 36/47/36 44/46/44 33/49/33
f 37/24/37 40/29/40 38/23/38
f 38/23/38 40/29/40 33/25/33
f 38/52/38 44/46/44 37/51/37
f 39/30/39 37/24/37 30/28/30
f 39/30/39 41/36/41 40/29/40
f 40/29/40 37/24/37 39/30/39
f 41/36/41 44/46/44 42/35/42
f 42/35/42 40/29/40 41/36/41
f 42/35/42 44/46/44 35/38/35
f 43/45/43 37/51/37 44/46/44
f 43/45/43 41/36/41 31/43/31
f 44/46/44 41/36/41 43/45/43
f 45/44/45 47/43/47 46/40/46
f 45/50/45 53/51/53 47/48/47
f 46/40/46 47/43/47 48/39/48
f 46/28/46 53/24/53 45/26/45
f 46/32/46 57/36/57 55/30/55
f 47/48/47 53/51/53 59/45/59
f 47/43/47 57/36/57 48/39/48
f 48/34/48 57/36/57 46/32/46
f 49/25/49 56/29/56 50/27/50
f 49/49/49 60/46/60 54/52/54
f 50/37/50 51/38/51 49/41/49
f 50/31/50 56/29/56 51/33/51
f 51/33/51 56/29/56 58/35/58
f 51/38/51 60/46/60 52/42/52
f 52/42/52 49/41/49 51/38/51
f 52/47/52 60/46/60 49/49/49
f 53/24/53 56/29/56 54/23/54
f 54/23/54 56/29/56 49/25/49
f 54/52/54 60/46/60 53/51/53
f 55/30/55 53/24/53 46/28/46
f 55/30/55 57/36/57 56/29/56
f 56/29/56 53/24/53 55/30/55
f 57/36/57 60/46/60 58/35/58
f 58/35/58 56/29/56 57/36/57
f 58/35/58 60/46/60 51/38/51
f 59/45/59 53/51/53 60/46/60
f 59/45/59 57/36/57 47/43/47
f 60/46/60 57/36/57 59/45/59
