# Exported from Wings 3D 1.3.0.1
mtllib gate.mtl
o gate
#64 vertices, 128 faces
v 23.94695748 0.0000000e+0 -9.91915457
v 23.94695748 0.0000000e+0 9.91915457
v 9.91915457 0.0000000e+0 23.94695748
v -9.91915457 0.0000000e+0 23.94695748
v -23.94695748 0.0000000e+0 9.91915457
v -23.94695748 0.0000000e+0 -9.91915457
v -9.91915457 0.0000000e+0 -23.94695748
v 9.91915457 0.0000000e+0 -23.94695748
v 23.69800728 0.65053824 -9.81603602
v 23.69800728 0.65053824 9.81603602
v 9.81603602 0.65053824 23.69800728
v -9.81603602 0.65053824 23.69800728
v -23.69800728 0.65053824 9.81603602
v -23.69800728 0.65053824 -9.81603602
v -9.81603602 0.65053824 -23.69800728
v 9.81603602 0.65053824 -23.69800728
v 23.09698831 0.92000000 -9.56708581
v 23.09698831 0.92000000 9.56708581
v 9.56708581 0.92000000 23.09698831
v -9.56708581 0.92000000 23.09698831
v -23.09698831 0.92000000 9.56708581
v -23.09698831 0.92000000 -9.56708581
v -9.56708581 0.92000000 -23.09698831
v 9.56708581 0.92000000 -23.09698831
v 22.49596935 0.65053824 -9.31813560
v 22.49596935 0.65053824 9.31813560
v 9.31813560 0.65053824 22.49596935
v -9.31813560 0.65053824 22.49596935
v -22.49596935 0.65053824 9.31813560
v -22.49596935 0.65053824 -9.31813560
v -9.31813560 0.65053824 -22.49596935
v 9.31813560 0.65053824 -22.49596935
v 22.24701914 1.1266751e-16 -9.21501705
v 22.24701914 1.1266751e-16 9.21501705
v 9.21501705 1.1266751e-16 22.24701914
v -9.21501705 1.1266751e-16 22.24701914
v -22.24701914 1.1266751e-16 9.21501705
v -22.24701914 1.1266751e-16 -9.21501705
v -9.21501705 1.1266751e-16 -22.24701914
v 9.21501705 1.1266751e-16 -22.24701914
v 22.49596935 -0.65053824 -9.31813560
v 22.49596935 -0.65053824 9.31813560
v 9.31813560 -0.65053824 22.49596935
v -9.31813560 -0.65053824 22.49596935
v -22.49596935 -0.65053824 9.31813560
v -22.49596935 -0.65053824 -9.31813560
v -9.31813560 -0.65053824 -22.49596935
v 9.31813560 -0.65053824 -22.49596935
v 23.09698831 -0.92000000 -9.56708581
v 23.09698831 -0.92000000 9.56708581
v 9.56708581 -0.92000000 23.09698831
v -9.56708581 -0.92000000 23.09698831
v -23.09698831 -0.92000000 9.56708581
v -23.09698831 -0.92000000 -9.56708581
v -9.56708581 -0.92000000 -23.09698831
v 9.56708581 -0.92000000 -23.09698831
v 23.69800728 -0.65053824 -9.81603602
v 23.69800728 -0.65053824 9.81603602
v 9.81603602 -0.65053824 23.69800728
v -9.81603602 -0.65053824 23.69800728
v -23.69800728 -0.65053824 9.81603602
v -23.69800728 -0.65053824 -9.81603602
v -9.81603602 -0.65053824 -23.69800728
v 9.81603602 -0.65053824 -23.69800728
vt -6.9388939e-17 4.4408921e-16
vt -6.9388939e-17 0.12150555
vt -6.9388939e-17 0.25000000
vt -6.9388939e-17 0.37849445
vt -6.9388939e-17 0.50000000
vt -6.9388939e-17 0.62150555
vt -6.9388939e-17 0.75000000
vt -6.9388939e-17 0.87849445
vt -6.9388939e-17 1.00000000
vt -1.7347235e-17 5.1070259e-15
vt -1.7347235e-17 0.12150555
vt -1.7347235e-17 0.25000000
vt -1.7347235e-17 0.37849445
vt -1.7347235e-17 0.50000000
vt -1.7347235e-17 0.62150555
vt -1.7347235e-17 0.75000000
vt -1.7347235e-17 0.87849445
vt -1.7347235e-17 1.00000000
vt -1.3877788e-17 0.0000000e+0
vt -1.3877788e-17 0.12150555
vt -1.3877788e-17 0.25000000
vt -1.3877788e-17 0.37849445
vt -1.3877788e-17 0.50000000
vt -1.3877788e-17 0.62150555
vt -1.3877788e-17 0.75000000
vt -1.3877788e-17 0.87849445
vt -1.3877788e-17 1.00000000
vt -3.4694470e-18 0.0000000e+0
vt -3.4694470e-18 8.8817842e-16
vt -3.4694470e-18 0.12150555
vt -3.4694470e-18 0.12150555
vt -3.4694470e-18 0.25000000
vt -3.4694470e-18 0.25000000
vt -3.4694470e-18 0.37849445
vt -3.4694470e-18 0.37849445
vt -3.4694470e-18 0.50000000
vt -3.4694470e-18 0.50000000
vt -3.4694470e-18 0.62150555
vt -3.4694470e-18 0.62150555
vt -3.4694470e-18 0.75000000
vt -3.4694470e-18 0.75000000
vt -3.4694470e-18 0.87849445
vt -3.4694470e-18 0.87849445
vt -3.4694470e-18 1.00000000
vt 2.7755576e-17 -2.2204460e-16
vt 2.7755576e-17 0.12150555
vt 2.7755576e-17 0.25000000
vt 2.7755576e-17 0.37849445
vt 2.7755576e-17 0.50000000
vt 2.7755576e-17 0.62150555
vt 2.7755576e-17 0.75000000
vt 2.7755576e-17 0.87849445
vt 2.7755576e-17 1.00000000
vt 3.1225023e-17 0.0000000e+0
vt 3.1225023e-17 0.12150555
vt 3.1225023e-17 0.25000000
vt 3.1225023e-17 0.37849445
vt 3.1225023e-17 0.50000000
vt 3.1225023e-17 0.62150555
vt 3.1225023e-17 0.75000000
vt 3.1225023e-17 0.87849445
vt 3.1225023e-17 1.00000000
vt 4.8572257e-17 -2.2204460e-16
vt 4.8572257e-17 0.12150555
vt 4.8572257e-17 0.25000000
vt 4.8572257e-17 0.37849445
vt 4.8572257e-17 0.50000000
vt 4.8572257e-17 0.62150555
vt 4.8572257e-17 0.75000000
vt 4.8572257e-17 0.87849445
vt 4.8572257e-17 1.00000000
vt 1.00000000 0.0000000e+0
vt 1.00000000 0.12150555
vt 1.00000000 0.25000000
vt 1.00000000 0.37849445
vt 1.00000000 0.50000000
vt 1.00000000 0.62150555
vt 1.00000000 0.75000000
vt 1.00000000 0.87849445
vt 1.00000000 1.00000000
vt 1.00000000 0.0000000e+0
vt 1.00000000 6.6613381e-16
vt 1.00000000 8.8817842e-16
vt 1.00000000 1.5543122e-15
vt 1.00000000 0.12150555
vt 1.00000000 0.12150555
vt 1.00000000 0.12150555
vt 1.00000000 0.12150555
vt 1.00000000 0.12150555
vt 1.00000000 0.12150555
vt 1.00000000 0.12150555
vt 1.00000000 0.25000000
vt 1.00000000 0.25000000
vt 1.00000000 0.25000000
vt 1.00000000 0.25000000
vt 1.00000000 0.25000000
vt 1.00000000 0.25000000
vt 1.00000000 0.25000000
vt 1.00000000 0.37849445
vt 1.00000000 0.37849445
vt 1.00000000 0.37849445
vt 1.00000000 0.37849445
vt 1.00000000 0.37849445
vt 1.00000000 0.37849445
vt 1.00000000 0.37849445
vt 1.00000000 0.50000000
vt 1.00000000 0.50000000
vt 1.00000000 0.50000000
vt 1.00000000 0.50000000
vt 1.00000000 0.62150555
vt 1.00000000 0.62150555
vt 1.00000000 0.62150555
vt 1.00000000 0.62150555
vt 1.00000000 0.62150555
vt 1.00000000 0.62150555
vt 1.00000000 0.75000000
vt 1.00000000 0.75000000
vt 1.00000000 0.75000000
vt 1.00000000 0.75000000
vt 1.00000000 0.87849445
vt 1.00000000 0.87849445
vt 1.00000000 0.87849445
vt 1.00000000 0.87849445
vt 1.00000000 0.87849445
vt 1.00000000 0.87849445
vt 1.00000000 0.87849445
vt 1.00000000 1.00000000
vt 1.00000000 1.00000000
vt 1.00000000 1.00000000
vn 0.92387953 6.4334185e-17 -0.38268343
vn 0.92387953 6.4334185e-17 0.38268343
vn 0.38268343 6.4334185e-17 0.92387953
vn -0.38268343 3.2167093e-17 0.92387953
vn -0.92387953 3.2167093e-17 0.38268343
vn -0.92387953 4.8250639e-17 -0.38268343
vn -0.38268343 9.6501278e-17 -0.92387953
vn 0.38268343 4.8250639e-17 -0.92387953
vn 0.64567347 0.71524683 -0.26744671
vn 0.64567347 0.71524683 0.26744671
vn 0.26744671 0.71524683 0.64567347
vn -0.26744671 0.71524683 0.64567347
vn -0.64567347 0.71524683 0.26744671
vn -0.64567347 0.71524683 -0.26744671
vn -0.26744671 0.71524683 -0.64567347
vn 0.26744671 0.71524683 -0.64567347
vn 2.2813128e-15 1.00000000 -2.8896629e-16
vn 3.0417504e-17 1.00000000 2.3573566e-16
vn -1.0646126e-16 1.00000000 4.2584506e-16
vn -8.3648136e-17 1.00000000 6.4637196e-16
vn -3.2394642e-15 1.00000000 2.8896629e-16
vn -2.6235097e-15 1.00000000 -1.5208752e-17
vn 5.1709757e-16 1.00000000 -7.3002009e-16
vn 7.6043760e-17 1.00000000 -9.0492074e-16
vn -0.64567347 0.71524683 0.26744671
vn -0.64567347 0.71524683 -0.26744671
vn -0.26744671 0.71524683 -0.64567347
vn 0.26744671 0.71524683 -0.64567347
vn 0.64567347 0.71524683 -0.26744671
vn 0.64567347 0.71524683 0.26744671
vn 0.26744671 0.71524683 0.64567347
vn -0.26744671 0.71524683 0.64567347
vn -0.92387953 0.0000000e+0 0.38268343
vn -0.92387953 -3.6187979e-16 -0.38268343
vn -0.38268343 -4.1817220e-16 -0.92387953
vn 0.38268343 3.1362915e-16 -0.92387953
vn 0.92387953 4.8250639e-17 -0.38268343
vn 0.92387953 -3.6187979e-16 0.38268343
vn 0.38268343 -4.1817220e-16 0.92387953
vn -0.38268343 3.2971270e-16 0.92387953
vn -0.64567347 -0.71524683 0.26744671
vn -0.64567347 -0.71524683 -0.26744671
vn -0.26744671 -0.71524683 -0.64567347
vn 0.26744671 -0.71524683 -0.64567347
vn 0.64567347 -0.71524683 -0.26744671
vn 0.64567347 -0.71524683 0.26744671
vn 0.26744671 -0.71524683 0.64567347
vn -0.26744671 -0.71524683 0.64567347
vn 1.5360839e-15 -1.00000000 -2.2813128e-16
vn -4.9428444e-16 -1.00000000 1.3687877e-16
vn -2.1292253e-16 -1.00000000 1.5208752e-16
vn -1.8250502e-16 -1.00000000 6.7678946e-16
vn -2.5550703e-15 -1.00000000 2.2813128e-16
vn -2.1368297e-15 -1.00000000 3.0417504e-17
vn 5.7793258e-16 -1.00000000 -5.6272382e-16
vn 1.6729627e-16 -1.00000000 -9.5815137e-16
vn 0.64567347 -0.71524683 -0.26744671
vn 0.64567347 -0.71524683 0.26744671
vn 0.26744671 -0.71524683 0.64567347
vn -0.26744671 -0.71524683 0.64567347
vn -0.64567347 -0.71524683 0.26744671
vn -0.64567347 -0.71524683 -0.26744671
vn -0.26744671 -0.71524683 -0.64567347
vn 0.26744671 -0.71524683 -0.64567347
g gate_gate
usemtl gate
s 1
f 1/51/1 9/50/9 2/117/2
f 1/118/1 57/124/57 8/60/8
f 2/117/2 9/50/9 10/113/10
f 2/16/2 11/110/11 3/116/3
f 2/117/2 57/52/57 1/51/1
f 2/16/2 59/120/59 58/17/58
f 3/40/3 11/39/11 4/119/4
f 3/116/3 59/120/59 2/16/2
f 4/119/4 11/39/11 12/115/12
f 4/7/4 13/77/13 5/78/5
f 4/119/4 59/42/59 3/40/3
f 4/7/4 61/79/61 60/8/60
f 5/41/5 13/38/13 6/119/6
f 5/78/5 61/79/61 4/7/4
f 6/119/6 13/38/13 14/112/14
f 6/69/6 15/111/15 7/118/7
f 6/119/6 61/43/61 5/41/5
f 6/69/6 63/123/63 62/70/62
f 7/25/7 15/24/15 8/118/8
f 7/118/7 63/123/63 6/69/6
f 8/60/8 9/115/9 1/118/1
f 8/118/8 15/24/15 16/114/16
f 8/60/8 57/124/57 64/61/64
f 8/118/8 63/26/63 7/25/7
f 9/50/9 18/108/18 10/113/10
f 9/115/9 24/58/24 17/109/17
f 10/15/10 11/110/11 2/16/2
f 10/15/10 18/14/18 11/110/11
f 11/110/11 18/14/18 19/106/19
f 11/39/11 20/107/20 12/115/12
f 12/6/12 13/77/13 4/7/4
f 12/6/12 20/5/20 13/77/13
f 13/77/13 20/5/20 21/76/21
f 13/38/13 22/107/22 14/112/14
f 14/68/14 15/111/15 6/69/6
f 14/68/14 22/67/22 15/111/15
f 15/111/15 22/67/22 23/107/23
f 15/24/15 24/106/24 16/114/16
f 16/59/16 9/115/9 8/60/8
f 16/59/16 24/58/24 9/115/9
f 17/49/17 18/108/18 9/50/9
f 17/49/17 25/48/25 18/108/18
f 18/108/18 25/48/25 26/102/26
f 18/14/18 27/99/27 19/106/19
f 19/37/19 20/107/20 11/39/11
f 19/37/19 27/34/27 20/107/20
f 20/107/20 27/34/27 28/103/28
f 20/5/20 29/75/29 21/76/21
f 21/36/21 22/107/22 13/38/13
f 21/36/21 29/35/29 22/107/22
f 22/107/22 29/35/29 30/101/30
f 22/67/22 31/105/31 23/107/23
f 23/23/23 24/106/24 15/24/15
f 23/23/23 31/22/31 24/106/24
f 24/58/24 25/104/25 17/109/17
f 24/106/24 31/22/31 32/100/32
f 25/48/25 34/97/34 26/102/26
f 25/104/25 40/56/40 33/98/33
f 26/13/26 27/99/27 18/14/18
f 26/13/26 34/12/34 27/99/27
f 27/99/27 34/12/34 35/93/35
f 27/34/27 36/96/36 28/103/28
f 28/4/28 29/75/29 20/5/20
f 28/4/28 36/3/36 29/75/29
f 29/75/29 36/3/36 37/74/37
f 29/35/29 38/92/38 30/101/30
f 30/66/30 31/105/31 22/67/22
f 30/66/30 38/65/38 31/105/31
f 31/105/31 38/65/38 39/94/39
f 31/22/31 40/95/40 32/100/32
f 32/57/32 25/104/25 24/58/24
f 32/57/32 40/56/40 25/104/25
f 33/47/33 34/97/34 25/48/25
f 33/47/33 41/46/41 34/97/34
f 34/97/34 41/46/41 42/91/42
f 34/12/34 43/87/43 35/93/35
f 35/32/35 36/96/36 27/34/27
f 35/32/35 43/31/43 36/96/36
f 36/96/36 43/31/43 44/89/44
f 36/3/36 45/73/45 37/74/37
f 37/33/37 38/92/38 29/35/29
f 37/33/37 45/30/45 38/92/38
f 38/92/38 45/30/45 46/85/46
f 38/65/38 47/86/47 39/94/39
f 39/21/39 40/95/40 31/22/31
f 39/21/39 47/20/47 40/95/40
f 40/56/40 41/90/41 33/98/33
f 40/95/40 47/20/47 48/88/48
f 41/46/41 50/84/50 42/91/42
f 41/90/41 56/54/56 49/82/49
f 42/11/42 43/87/43 34/12/34
f 42/11/42 50/10/50 43/87/43
f 43/87/43 50/10/50 51/81/51
f 43/31/43 52/83/52 44/89/44
f 44/2/44 45/73/45 36/3/36
f 44/2/44 52/1/52 45/73/45
f 45/73/45 52/1/52 53/72/53
f 45/30/45 54/81/54 46/85/46
f 46/64/46 47/86/47 38/65/38
f 46/64/46 54/63/54 47/86/47
f 47/86/47 54/63/54 55/82/55
f 47/20/47 56/81/56 48/88/48
f 48/55/48 41/90/41 40/56/40
f 48/55/48 56/54/56 41/90/41
f 49/45/49 50/84/50 41/46/41
f 49/53/49 57/52/57 50/128/50
f 50/128/50 57/52/57 58/125/58
f 50/18/50 59/120/59 51/127/51
f 51/28/51 52/83/52 43/31/43
f 51/44/51 59/42/59 52/129/52
f 52/129/52 59/42/59 60/126/60
f 52/9/52 61/79/61 53/80/53
f 53/29/53 54/81/54 45/30/45
f 53/44/53 61/43/61 54/129/54
f 54/129/54 61/43/61 62/121/62
f 54/71/54 63/123/63 55/128/55
f 55/19/55 56/81/56 47/20/47
f 55/27/55 63/26/63 56/128/56
f 56/62/56 57/124/57 49/128/49
f 56/128/56 63/26/63 64/122/64
f 58/125/58 57/52/57 2/117/2
f 58/17/58 59/120/59 50/18/50
f 60/126/60 59/42/59 4/119/4
f 60/8/60 61/79/61 52/9/52
f 62/121/62 61/43/61 6/119/6
f 62/70/62 63/123/63 54/71/54
f 64/61/64 57/124/57 56/62/56
f 64/122/64 63/26/63 8/118/8
