# Exported from Wings 3D 1.3.0.1
mtllib grenade.mtl
o grenade
#40 vertices, 76 faces
v 1.50000000 8.2210268e-17 0.97996920
v 1.21352549 -0.88167788 0.97996920
v 0.46352549 -1.42658477 0.97996920
v -0.46352549 -1.42658477 0.97996920
v -1.21352549 -0.88167788 0.97996920
v -1.50000000 -1.0148675e-16 0.97996920
v -1.21352549 0.88167788 0.97996920
v -0.46352549 1.42658477 0.97996920
v 0.46352549 1.42658477 0.97996920
v 1.21352549 0.88167788 0.97996920
v 1.50000000 -3.7801347e-17 -0.97996920
v 1.21352549 -0.88167788 -0.97996920
v 0.46352549 -1.42658477 -0.97996920
v -0.46352549 -1.42658477 -0.97996920
v -1.21352549 -0.88167788 -0.97996920
v -1.50000000 -2.2149837e-16 -0.97996920
v -1.21352549 0.88167788 -0.97996920
v -0.46352549 1.42658477 -0.97996920
v 0.46352549 1.42658477 -0.97996920
v 1.21352549 0.88167788 -0.97996920
v 0.95320726 -8.5601616e-17 -1.50000000
v 0.77116087 -0.56028117 -1.50000000
v 0.29455724 -0.90655398 -1.50000000
v -0.29455724 -0.90655398 -1.50000000
v -0.77116087 -0.56028117 -1.50000000
v -0.95320726 -1.7355324e-16 -1.50000000
v -0.77116087 0.56028117 -1.50000000
v -0.29455724 0.90655398 -1.50000000
v 0.29455724 0.90655398 -1.50000000
v 0.77116087 0.56028117 -1.50000000
v 0.77116087 -0.56028117 1.50000000
v 0.95320726 9.8095404e-17 1.50000000
v 0.77116087 0.56028117 1.50000000
v 0.29455724 0.90655398 1.50000000
v -0.29455724 0.90655398 1.50000000
v -0.77116087 0.56028117 1.50000000
v -0.95320726 1.0143781e-17 1.50000000
v -0.77116087 -0.56028117 1.50000000
v -0.29455724 -0.90655398 1.50000000
v 0.29455724 -0.90655398 1.50000000
vt 0.0000000e+0 0.18858917
vt 0.0000000e+0 0.57851837
vt 0.0000000e+0 1.00000000
vt 1.2490009e-16 0.76569472
vt 3.0936960e-2 0.46361414
vt 3.7168689e-2 0.30605206
vt 3.8560505e-2 6.9912138e-2
vt 3.8864978e-2 0.69290046
vt 9.0719371e-2 0.57482613
vt 9.2272562e-2 0.18957490
vt 0.10987192 0.50970457
vt 0.11082641 1.00000000
vt 0.11082641 0.76569472
vt 0.11203374 0.63830070
vt 0.11209819 0.25320713
vt 0.11360038 0.12638278
vt 0.11584653 0.38311021
vt 0.13532345 0.37991763
vt 0.13774081 0.76569472
vt 0.14192125 0.0000000e+0
vt 0.16423476 0.46514242
vt 0.16535600 0.29328587
vt 0.16598629 0.67742013
vt 0.16841676 8.8392224e-2
vt 0.22165283 1.00000000
vt 0.22165283 0.76569472
vt 0.23198982 0.29471798
vt 0.23253823 0.67716316
vt 0.23505058 8.9824343e-2
vt 0.23559673 0.46460810
vt 0.25848533 0.38311021
vt 0.26070463 0.76401274
vt 0.26508314 3.1925787e-3
vt 0.28464983 0.38311021
vt 0.28652605 0.63816546
vt 0.28680621 0.25672743
vt 0.28830839 0.12990308
vt 0.28955866 0.50961630
vt 0.30813402 0.19353531
vt 0.30820185 0.57485502
vt 0.35896366 0.69267013
vt 0.36184608 0.31319807
vt 0.36323789 7.7058144e-2
vt 0.36873673 0.46426323
vt 0.39858956 0.57917786
vt 0.40040658 0.19452104
vt 0.40040658 0.32222448
vt 0.40040658 0.32222448
vt 0.40040658 8.7919198e-2
vt 0.40040658 0.55652976
vt 0.51123299 0.32222448
vt 0.51123299 0.32222448
vt 0.51123299 0.55652976
vt 0.51123299 8.7919198e-2
vt 0.53143269 5.5511151e-17
vt 0.60185971 0.0000000e+0
vt 0.62205941 8.7919198e-2
vt 0.62205941 0.32222448
vt 0.62205941 0.32222448
vt 0.62205941 0.55652976
vt 0.73288582 0.32222448
vt 0.73288582 8.7919198e-2
vt 0.73288582 0.55652976
vt 0.73288582 6.9388939e-17
vt 0.73288582 0.23430528
vt 0.84371223 0.0000000e+0
vt 0.84371223 0.23430528
vt 0.95453864 0.0000000e+0
vt 0.95453864 0.23430528
vn 0.91681935 9.0122834e-17 0.39930225
vn 0.74172243 -0.53889289 0.39930225
vn 0.28331276 -0.87194701 0.39930225
vn -0.28331276 -0.87194701 0.39930225
vn -0.74172243 -0.53889289 0.39930225
vn -0.91681935 -1.2538829e-16 0.39930225
vn -0.74172243 0.53889289 0.39930225
vn -0.28331276 0.87194701 0.39930225
vn 0.28331276 0.87194701 0.39930225
vn 0.74172243 0.53889289 0.39930225
vn 0.91681935 6.2694145e-17 -0.39930225
vn 0.74172243 -0.53889289 -0.39930225
vn 0.28331276 -0.87194701 -0.39930225
vn -0.28331276 -0.87194701 -0.39930225
vn -0.74172243 -0.53889289 -0.39930225
vn -0.91681935 -2.4293981e-16 -0.39930225
vn -0.74172243 0.53889289 -0.39930225
vn -0.28331276 0.87194701 -0.39930225
vn 0.28331276 0.87194701 -0.39930225
vn 0.74172243 0.53889289 -0.39930225
vn 0.41905185 1.0377146e-16 -0.90796230
vn 0.23580190 -0.17132011 -0.95658083
vn 0.15039371 -0.46286424 -0.87357795
vn -0.15039371 -0.46286424 -0.87357795
vn -0.33902007 -0.24631250 -0.90796230
vn -0.29146718 -1.2029527e-16 -0.95658083
vn -0.33902007 0.24631250 -0.90796230
vn -0.11326258 0.34858638 -0.93040804
vn 0.17765679 0.54677138 -0.81821704
vn 0.23580190 0.17132011 -0.95658083
vn 0.33902007 -0.24631250 0.90796230
vn 0.29146718 -4.2103346e-17 0.95658083
vn 0.39373584 0.28606583 0.87357795
vn 0.15039371 0.46286424 0.87357795
vn -0.12949414 0.39854200 0.90796230
vn -0.23580190 0.17132011 0.95658083
vn -0.41905185 -2.1619054e-16 0.90796230
vn -0.29652529 -0.21543823 0.93040804
vn -0.17765679 -0.54677138 0.81821704
vn 9.0068311e-2 -0.27720176 0.95658083
g grenade_grenade
usemtl grenade
s 1
f 1/12/1 12/4/12 11/13/11
f 1/46/1 31/37/31 2/43/2
f 1/46/1 33/36/33 32/39/32
f 2/61/2 3/58/3 12/62/12
f 2/43/2 31/37/31 3/33/3
f 3/58/3 14/54/14 13/57/13
f 3/33/3 39/24/39 4/20/4
f 4/51/4 5/47/5 14/54/14
f 4/20/4 39/24/39 5/7/5
f 5/69/5 16/66/16 15/68/15
f 5/7/5 37/10/37 6/1/6
f 6/67/6 7/65/7 16/66/16
f 6/1/6 37/10/37 7/6/7
f 7/63/7 18/59/18 17/61/17
f 7/6/7 35/22/35 8/18/8
f 8/60/8 9/53/9 18/59/18
f 8/18/8 35/22/35 9/31/9
f 9/53/9 20/48/20 19/52/19
f 10/25/10 1/12/1 20/26/20
f 10/42/10 9/31/9 33/36/33
f 11/13/11 20/26/20 1/12/1
f 11/2/11 21/9/21 20/8/20
f 12/4/12 1/12/1 2/3/2
f 12/5/12 21/9/21 11/2/11
f 12/5/12 23/21/23 22/11/22
f 13/57/13 12/62/12 3/58/3
f 13/57/13 14/54/14 23/56/23
f 14/54/14 3/58/3 4/51/4
f 14/34/14 25/38/25 24/30/24
f 15/49/15 14/54/14 5/47/5
f 15/44/15 16/45/16 25/38/25
f 16/66/16 5/69/5 6/67/6
f 16/45/16 27/35/27 26/40/26
f 17/64/17 16/66/16 7/65/7
f 17/41/17 18/32/18 27/35/27
f 18/59/18 7/63/7 8/60/8
f 18/32/18 29/23/29 28/28/28
f 19/52/19 18/59/18 9/53/9
f 19/19/19 20/8/20 29/23/29
f 20/48/20 9/53/9 10/50/10
f 21/9/21 27/35/27 30/14/30
f 22/11/22 21/9/21 12/5/12
f 22/11/22 26/40/26 21/9/21
f 23/21/23 12/5/12 13/17/13
f 23/21/23 25/38/25 22/11/22
f 24/55/24 23/56/23 14/54/14
f 24/30/24 25/38/25 23/21/23
f 25/38/25 14/34/14 15/44/15
f 26/40/26 22/11/22 25/38/25
f 26/40/26 25/38/25 16/45/16
f 27/35/27 16/45/16 17/41/17
f 27/35/27 21/9/21 26/40/26
f 28/28/28 27/35/27 18/32/18
f 28/28/28 30/14/30 27/35/27
f 29/23/29 18/32/18 19/19/19
f 29/23/29 20/8/20 30/14/30
f 29/23/29 30/14/30 28/28/28
f 30/14/30 20/8/20 21/9/21
f 31/37/31 37/10/37 40/29/40
f 32/39/32 31/37/31 1/46/1
f 32/39/32 36/15/36 31/37/31
f 33/36/33 1/46/1 10/42/10
f 33/36/33 9/31/9 34/27/34
f 33/36/33 35/22/35 32/39/32
f 34/27/34 9/31/9 35/22/35
f 34/27/34 35/22/35 33/36/33
f 35/22/35 7/6/7 36/15/36
f 36/15/36 7/6/7 37/10/37
f 36/15/36 32/39/32 35/22/35
f 37/10/37 5/7/5 38/16/38
f 37/10/37 31/37/31 36/15/36
f 38/16/38 5/7/5 39/24/39
f 38/16/38 40/29/40 37/10/37
f 39/24/39 3/33/3 40/29/40
f 39/24/39 40/29/40 38/16/38
f 40/29/40 3/33/3 31/37/31
