# Exported from Wings 3D 1.3.0.1
mtllib powerup.mtl
o Powerup
#24 vertices, 32 faces
v 3.40867599 1.00000000 -1.96800000
v 5.0542355e-16 1.00000000 3.93600000
v -3.40867599 1.00000000 -1.96800000
v 3.40867599 -1.00000000 -1.96800000
v 5.0542355e-16 -1.00000000 3.93600000
v -3.40867599 -1.00000000 -1.96800000
v 10.22602797 1.00000000 -1.96800000
v 6.81735198 1.00000000 -7.87200000
v 3.40867599 1.00000000 -1.96800000
v 10.22602797 -1.00000000 -1.96800000
v 6.81735198 -1.00000000 -7.87200000
v 3.40867599 -1.00000000 -1.96800000
v -3.40867599 1.00000000 -1.96800000
v -6.81735198 1.00000000 -7.87200000
v -10.22602797 1.00000000 -1.96800000
v -3.40867599 -1.00000000 -1.96800000
v -6.81735198 -1.00000000 -7.87200000
v -10.22602797 -1.00000000 -1.96800000
v 3.40867599 1.00000000 9.84000000
v 8.8817842e-16 1.00000000 3.93600000
v -3.40867599 1.00000000 9.84000000
v 3.40867599 -1.00000000 9.84000000
v 8.8817842e-16 -1.00000000 3.93600000
v -3.40867599 -1.00000000 9.84000000
vt -2.2204460e-16 6.6987298e-2
vt -2.2204460e-16 0.35331548
vt -2.2204460e-16 0.35331548
vt -2.2204460e-16 0.64668452
vt -2.2204460e-16 0.64668452
vt -2.2204460e-16 0.93301270
vt -1.1102230e-16 6.6987298e-2
vt -1.1102230e-16 0.35331548
vt -1.1102230e-16 0.64668452
vt -5.5511151e-17 6.6987298e-2
vt -2.7755576e-17 0.35331548
vt -2.7755576e-17 0.35331548
vt -2.7755576e-17 0.64668452
vt 0.0000000e+0 0.35331548
vt 0.0000000e+0 0.35331548
vt 0.0000000e+0 0.35331548
vt 0.0000000e+0 0.64668452
vt 0.0000000e+0 0.64668452
vt 2.7755576e-17 6.6987298e-2
vt 2.7755576e-17 6.6987298e-2
vt 2.7755576e-17 0.35331548
vt 2.7755576e-17 0.64668452
vt 2.7755576e-17 0.64668452
vt 2.7755576e-17 0.93301270
vt 5.5511151e-17 0.35331548
vt 5.5511151e-17 0.64668452
vt 1.1102230e-16 0.64668452
vt 2.4980018e-16 0.35331548
vt 2.7755576e-16 0.64668452
vt 5.5511151e-16 0.35331548
vt 0.50000000 0.93301270
vt 0.50000000 0.93301270
vt 0.50000000 6.6987298e-2
vt 0.50000000 0.93301270
vt 0.50000000 6.6987298e-2
vt 0.50000000 0.93301270
vt 0.50000000 0.93301270
vt 1.00000000 0.35331548
vt 1.00000000 0.64668452
vt 1.00000000 6.6987298e-2
vt 1.00000000 0.35331548
vt 1.00000000 0.35331548
vt 1.00000000 0.64668452
vt 1.00000000 0.64668452
vt 1.00000000 0.93301270
vt 1.00000000 6.6987298e-2
vt 1.00000000 0.35331548
vt 1.00000000 0.64668452
vt 1.00000000 0.64668452
vt 1.00000000 6.6987298e-2
vt 1.00000000 6.6987298e-2
vt 1.00000000 6.6987298e-2
vt 1.00000000 0.35331548
vt 1.00000000 0.35331548
vt 1.00000000 0.35331548
vt 1.00000000 0.35331548
vt 1.00000000 0.64668452
vt 1.00000000 0.64668452
vt 1.00000000 0.64668452
vt 1.00000000 0.64668452
vt 1.00000000 0.93301270
vt 1.00000000 0.35331548
vt 1.00000000 0.64668452
vn 0.0000000e+0 1.00000000 2.2066739e-17
vn -1.9542304e-16 0.0000000e+0 -1.00000000
vn 0.86602540 0.0000000e+0 0.50000000
vn 0.0000000e+0 1.00000000 2.2066739e-17
vn -0.86602540 0.0000000e+0 0.50000000
vn 0.86602540 0.0000000e+0 0.50000000
vn 0.86602540 0.0000000e+0 0.50000000
vn -0.86602540 0.0000000e+0 0.50000000
vn 0.0000000e+0 1.00000000 2.2066739e-17
vn -1.9542304e-16 0.0000000e+0 -1.00000000
vn -1.9542304e-16 0.0000000e+0 -1.00000000
vn -0.86602540 0.0000000e+0 0.50000000
vn 0.0000000e+0 -1.00000000 2.2066739e-17
vn -1.9542304e-16 0.0000000e+0 -1.00000000
vn 0.86602540 0.0000000e+0 0.50000000
vn -1.9542304e-16 0.0000000e+0 -1.00000000
vn 0.86602540 0.0000000e+0 0.50000000
vn 0.0000000e+0 -1.00000000 2.2066739e-17
vn -0.86602540 0.0000000e+0 0.50000000
vn 0.86602540 0.0000000e+0 0.50000000
vn 0.0000000e+0 -1.00000000 2.2066739e-17
vn -1.9542304e-16 0.0000000e+0 -1.00000000
vn -0.86602540 0.0000000e+0 0.50000000
vn -0.86602540 0.0000000e+0 0.50000000
vn 0.0000000e+0 1.00000000 0.0000000e+0
vn 0.0000000e+0 0.0000000e+0 1.00000000
vn 0.0000000e+0 0.0000000e+0 1.00000000
vn 0.86602540 0.0000000e+0 -0.50000000
vn 0.0000000e+0 1.00000000 0.0000000e+0
vn -0.86602540 0.0000000e+0 -0.50000000
vn 0.86602540 0.0000000e+0 -0.50000000
vn -0.86602540 0.0000000e+0 -0.50000000
vn 0.86602540 0.0000000e+0 -0.50000000
vn 0.0000000e+0 1.00000000 0.0000000e+0
vn 0.0000000e+0 0.0000000e+0 1.00000000
vn -0.86602540 0.0000000e+0 -0.50000000
vn 0.0000000e+0 -1.00000000 0.0000000e+0
vn 0.0000000e+0 0.0000000e+0 1.00000000
vn 0.86602540 0.0000000e+0 -0.50000000
vn 0.86602540 0.0000000e+0 -0.50000000
vn 0.0000000e+0 -1.00000000 0.0000000e+0
vn -0.86602540 0.0000000e+0 -0.50000000
vn 0.86602540 0.0000000e+0 -0.50000000
vn 0.0000000e+0 -1.00000000 0.0000000e+0
vn 0.0000000e+0 0.0000000e+0 1.00000000
vn -0.86602540 0.0000000e+0 -0.50000000
vn 0.0000000e+0 0.0000000e+0 1.00000000
vn -0.86602540 0.0000000e+0 -0.50000000
vn 0.0000000e+0 1.00000000 0.0000000e+0
vn 0.0000000e+0 0.0000000e+0 1.00000000
vn 0.0000000e+0 0.0000000e+0 1.00000000
vn 0.86602540 0.0000000e+0 -0.50000000
vn 0.0000000e+0 1.00000000 0.0000000e+0
vn -0.86602540 0.0000000e+0 -0.50000000
vn 0.86602540 0.0000000e+0 -0.50000000
vn -0.86602540 0.0000000e+0 -0.50000000
vn 0.86602540 0.0000000e+0 -0.50000000
vn 0.0000000e+0 1.00000000 0.0000000e+0
vn 0.0000000e+0 0.0000000e+0 1.00000000
vn -0.86602540 0.0000000e+0 -0.50000000
vn 0.0000000e+0 -1.00000000 0.0000000e+0
vn 0.0000000e+0 0.0000000e+0 1.00000000
vn 0.86602540 0.0000000e+0 -0.50000000
vn 0.86602540 0.0000000e+0 -0.50000000
vn 0.0000000e+0 -1.00000000 0.0000000e+0
vn -0.86602540 0.0000000e+0 -0.50000000
vn 0.86602540 0.0000000e+0 -0.50000000
vn 0.0000000e+0 -1.00000000 0.0000000e+0
vn 0.0000000e+0 0.0000000e+0 1.00000000
vn -0.86602540 0.0000000e+0 -0.50000000
vn 0.0000000e+0 0.0000000e+0 1.00000000
vn -0.86602540 0.0000000e+0 -0.50000000
vn 0.0000000e+0 1.00000000 -2.2066739e-17
vn 0.0000000e+0 0.0000000e+0 1.00000000
vn 0.0000000e+0 0.0000000e+0 1.00000000
vn 0.86602540 0.0000000e+0 -0.50000000
vn 0.0000000e+0 1.00000000 -2.2066739e-17
vn -0.86602540 0.0000000e+0 -0.50000000
vn 0.86602540 0.0000000e+0 -0.50000000
vn -0.86602540 0.0000000e+0 -0.50000000
vn 0.86602540 0.0000000e+0 -0.50000000
vn 0.0000000e+0 1.00000000 -2.2066739e-17
vn 0.0000000e+0 0.0000000e+0 1.00000000
vn -0.86602540 0.0000000e+0 -0.50000000
vn 0.0000000e+0 -1.00000000 -2.2066739e-17
vn 0.0000000e+0 0.0000000e+0 1.00000000
vn 0.86602540 0.0000000e+0 -0.50000000
vn 0.86602540 0.0000000e+0 -0.50000000
vn 0.0000000e+0 -1.00000000 -2.2066739e-17
vn -0.86602540 0.0000000e+0 -0.50000000
vn 0.86602540 0.0000000e+0 -0.50000000
vn 0.0000000e+0 -1.00000000 -2.2066739e-17
vn 0.0000000e+0 0.0000000e+0 1.00000000
vn -0.86602540 0.0000000e+0 -0.50000000
vn 0.0000000e+0 0.0000000e+0 1.00000000
vn -0.86602540 0.0000000e+0 -0.50000000
g Powerup_powerup
usemtl powerup
s 1
f 1/61/1 3/24/9 2/35/4
f 5/33/18 6/45/21 4/6/13
f 8/31/29 9/19/34 7/50/25
f 10/10/37 12/46/44 11/32/41
f 13/48/50 18/25/69 16/47/62
f 15/26/59 18/25/71 13/48/51
f 20/37/77 21/20/82 19/51/73
f 22/10/85 24/46/92 23/34/89
s 2
f 2/22/7 4/56/17 1/39/3
f 5/28/20 4/56/15 2/22/6
f 7/44/26 12/2/45 10/42/38
f 9/4/35 12/2/47 7/44/27
f 14/37/53 15/1/58 13/40/49
f 16/7/61 18/52/68 17/36/65
f 19/49/74 24/11/93 22/55/86
f 21/13/83 24/11/95 19/49/75
s 3
f 2/60/5 6/14/23 5/55/19
f 3/17/12 6/14/24 2/60/8
f 7/17/28 10/30/40 8/60/33
f 8/60/31 10/30/39 11/55/43
f 14/27/56 18/53/72 15/57/60
f 17/16/66 18/53/70 14/27/54
f 19/18/76 22/15/88 20/63/81
f 20/63/79 22/15/87 23/62/91
s 4
f 1/29/2 4/12/16 3/58/11
f 3/58/10 4/12/14 6/41/22
f 8/9/32 12/54/48 9/58/36
f 11/8/42 12/54/46 8/9/30
f 13/5/52 16/3/64 14/43/57
f 14/43/55 16/3/63 17/38/67
f 20/23/80 24/53/96 21/59/84
f 23/21/90 24/53/94 20/23/78
