# Exported from Wings 3D 1.3.0.1
mtllib rocket.mtl
o rocket
#18 vertices, 32 faces
v 0.17946223 0.68916230 -2.50000000
v -0.17946223 0.68916230 -2.50000000
v 0.68656317 -0.18916230 -2.50000000
v 0.50710094 -0.50000000 -2.50000000
v -0.50710094 -0.50000000 -2.50000000
v -0.68656317 -0.18916230 -2.50000000
v 0.17946223 0.68916230 2.29889862
v -0.17946223 0.68916230 2.29889862
v 0.68656317 -0.18916230 2.29889862
v 0.50710094 -0.50000000 2.29889862
v -0.50710094 -0.50000000 2.29889862
v -0.68656317 -0.18916230 2.29889862
v 0.39099500 -0.29889862 2.50000000
v 0.45435130 -0.18916230 2.50000000
v 6.3356294e-2 0.48806091 2.50000000
v -6.3356294e-2 0.48806091 2.50000000
v -0.45435130 -0.18916230 2.50000000
v -0.39099500 -0.29889862 2.50000000
vt 0.0000000e+0 0.85258522
vt 3.2583054e-2 0.82390165
vt 8.3169450e-2 0.79135938
vt 9.4554264e-2 0.77568276
vt 9.7712171e-2 0.77949584
vt 0.10388875 0.76959001
vt 0.30008849 0.38575276
vt 0.31667735 0.41027620
vt 0.36380176 3.2621941e-2
vt 0.37996755 0.22142103
vt 0.40949989 0.21931638
vt 0.43933069 0.49948805
vt 0.45221736 0.48546970
vt 0.45898621 0.54125647
vt 0.46882643 -2.5766307e-2
vt 0.47772131 0.50805077
vt 0.49893233 0.39728762
vt 0.50600386 -4.6397864e-2
vt 0.51187582 0.37065953
vt 0.52748061 0.41394901
vt 0.54297604 0.38248785
vt 0.55046794 0.28361645
vt 0.58785442 0.28472822
vt 0.64098821 0.52897416
vt 0.67149642 0.55202116
vt 0.74455307 0.46971855
vt 0.75516767 0.50229410
vt 0.77434135 0.49781294
vt 0.78185230 0.45067248
vt 0.91845039 0.77723410
vt 0.93577653 0.74259100
vt 0.98447282 0.64493090
vt 1.00159859 0.61038930
vt 1.04979164 0.51276324
vn 0.0000000e+0 1.00000000 3.2228166e-17
vn 0.0000000e+0 0.0000000e+0 -1.00000000
vn 0.86602540 0.50000000 2.2810996e-17
vn -0.86602540 0.50000000 -4.4619084e-17
vn 0.0000000e+0 1.00000000 -2.8338860e-18
vn 0.0000000e+0 0.0000000e+0 -1.00000000
vn 0.0000000e+0 0.0000000e+0 -1.00000000
vn -0.86602540 0.50000000 -4.4619084e-17
vn 0.0000000e+0 1.00000000 -2.8338860e-18
vn 0.86602540 0.50000000 3.1440956e-17
vn 0.86602540 -0.50000000 4.0070917e-17
vn 0.0000000e+0 0.0000000e+0 -1.00000000
vn 0.0000000e+0 0.0000000e+0 -1.00000000
vn 0.0000000e+0 0.0000000e+0 -1.00000000
vn 0.86602540 -0.50000000 4.0070917e-17
vn 0.86602540 0.50000000 3.1440956e-17
vn -1.7608491e-16 0.0000000e+0 -1.00000000
vn 0.86602540 -0.50000000 4.0285208e-17
vn -1.7608491e-16 0.0000000e+0 -1.00000000
vn 5.4733828e-16 -1.00000000 4.5621992e-17
vn -3.5216981e-16 0.0000000e+0 -1.00000000
vn 5.4733828e-16 -1.00000000 9.2444637e-33
vn -0.86602540 -0.50000000 -4.0285208e-17
vn -0.86602540 -0.50000000 -4.0285208e-17
vn 5.4733828e-16 -1.00000000 9.2444637e-33
vn -1.1738994e-16 0.0000000e+0 -1.00000000
vn -0.86602540 -0.50000000 -4.0285208e-17
vn -1.1738994e-16 0.0000000e+0 -1.00000000
vn -1.1738994e-16 0.0000000e+0 -1.00000000
vn -0.86602540 0.50000000 -4.5621992e-17
vn 0.86602540 0.50000000 3.1440956e-17
vn 0.0000000e+0 1.00000000 -2.8338860e-18
vn 0.0000000e+0 0.70710678 0.70710678
vn 0.61237244 0.35355339 0.70710678
vn 0.86602540 0.50000000 3.1440956e-17
vn 0.61237244 0.35355339 0.70710678
vn 0.0000000e+0 0.70710678 0.70710678
vn 0.0000000e+0 1.00000000 -2.8338860e-18
vn -0.86602540 0.50000000 -4.3616176e-17
vn 0.0000000e+0 0.70710678 0.70710678
vn -0.61237244 0.35355339 0.70710678
vn 0.0000000e+0 1.00000000 -3.7895938e-17
vn 0.86602540 0.50000000 4.0070917e-17
vn 0.61237244 0.35355339 0.70710678
vn 0.61237244 -0.35355339 0.70710678
vn 0.86602540 -0.50000000 3.9856626e-17
vn 5.4733828e-16 -1.00000000 9.2444637e-33
vn 0.86602540 -0.50000000 4.0070917e-17
vn 4.4417566e-16 -0.70710678 0.70710678
vn 0.61237244 -0.35355339 0.70710678
vn 5.4733828e-16 -1.00000000 9.2444637e-33
vn 0.86602540 -0.50000000 4.0070917e-17
vn 4.4417566e-16 -0.70710678 0.70710678
vn 0.61237244 -0.35355339 0.70710678
vn 5.4733828e-16 -1.00000000 -4.5621992e-17
vn 3.8914626e-16 -0.70710678 0.70710678
vn -0.61237244 -0.35355339 0.70710678
vn -0.86602540 -0.50000000 -4.0285208e-17
vn -0.86602540 0.50000000 -4.4619084e-17
vn -0.86602540 -0.50000000 -4.0285208e-17
vn -0.61237244 -0.35355339 0.70710678
vn -0.61237244 0.35355339 0.70710678
vn -0.86602540 0.50000000 -4.4619084e-17
vn -0.86602540 -0.50000000 -4.0285208e-17
vn -0.61237244 0.35355339 0.70710678
vn -0.61237244 -0.35355339 0.70710678
vn 0.0000000e+0 0.0000000e+0 1.00000000
vn 4.9920505e-16 -0.70710678 0.70710678
vn 0.61237244 -0.35355339 0.70710678
vn 0.61237244 0.35355339 0.70710678
vn 0.61237244 -0.35355339 0.70710678
vn 0.0000000e+0 0.0000000e+0 1.00000000
vn 0.0000000e+0 0.0000000e+0 1.00000000
vn 0.0000000e+0 0.0000000e+0 1.00000000
vn 0.61237244 0.35355339 0.70710678
vn 0.61237244 -0.35355339 0.70710678
vn 0.0000000e+0 0.0000000e+0 1.00000000
vn 0.0000000e+0 0.0000000e+0 1.00000000
vn 0.61237244 0.35355339 0.70710678
vn 0.0000000e+0 0.70710678 0.70710678
vn 0.0000000e+0 0.0000000e+0 1.00000000
vn 0.0000000e+0 0.70710678 0.70710678
vn -0.61237244 0.35355339 0.70710678
vn 0.0000000e+0 0.70710678 0.70710678
vn -0.61237244 0.35355339 0.70710678
vn 0.0000000e+0 0.0000000e+0 1.00000000
vn 0.0000000e+0 0.0000000e+0 1.00000000
vn 0.0000000e+0 0.0000000e+0 1.00000000
vn -0.61237244 0.35355339 0.70710678
vn -0.61237244 -0.35355339 0.70710678
vn 4.4417566e-16 -0.70710678 0.70710678
vn -0.61237244 -0.35355339 0.70710678
vn 0.0000000e+0 0.0000000e+0 1.00000000
vn 0.0000000e+0 0.0000000e+0 1.00000000
vn 4.4417566e-16 -0.70710678 0.70710678
vn -0.61237244 -0.35355339 0.70710678
g rocket_rocket
usemtl rocket
s 1
f 3/18/11 10/26/48 4/15/18
f 5/30/23 12/16/60 6/31/27
f 7/21/37 16/17/84 15/19/80
f 8/20/40 16/17/82 7/21/33
f 9/29/46 10/26/52 3/18/15
f 10/26/49 18/25/91 11/24/56
f 11/14/58 12/16/64 5/30/24
f 13/27/68 18/25/95 10/26/53
s 2
f 1/33/3 7/21/35 3/34/16
f 2/32/4 12/16/59 8/20/39
f 3/34/10 7/21/31 9/23/43
f 4/15/20 10/26/51 5/9/25
f 5/9/22 10/26/47 11/24/55
f 6/31/30 12/16/63 2/32/8
f 14/11/74 18/7/94 13/10/67
f 15/19/78 17/8/87 14/11/72
f 16/17/81 17/8/86 15/19/77
f 18/7/93 14/11/73 17/8/88
s 3
f 2/32/5 7/21/32 1/33/1
f 7/21/34 14/22/70 9/23/44
f 8/20/42 7/21/38 2/32/9
f 12/16/62 16/17/83 8/20/41
f 15/19/79 14/22/75 7/21/36
f 17/13/89 16/17/85 12/16/65
s 4
f 2/5/7 3/1/14 6/6/29
f 3/1/12 2/5/6 1/3/2
f 4/2/19 6/6/28 3/1/13
f 5/4/21 6/6/26 4/2/17
f 9/29/45 14/28/71 10/26/50
f 10/26/54 14/28/76 13/27/69
f 11/14/57 18/12/92 12/16/61
f 12/16/66 18/12/96 17/13/90
