# Exported from Wings 3D 1.2
mtllib rock.mtl
o tetrahedron8
#12 vertices, 20 faces
v -4.01835235 -0.10611350 6.87522456
v -4.01835235 6.33595136 2.31999681
v -7.96329530 -0.10611350 4.2382934e-2
v -3.94494295 -0.10611350 -6.91760750
v -1.3877788e-16 6.33595136 -4.63999362
v 3.94494295 -0.10611350 -6.91760750
v -1.3877788e-16 -6.66805541 4.55522775
v -3.94494295 -6.66805541 -2.27761388
v 3.94494295 -6.66805541 -2.27761388
v 4.01835235 6.33595136 2.31999681
v 4.01835235 -0.10611350 6.87522456
v 7.96329530 -0.10611350 4.2382934e-2
vt 0.0000000e+0 0.26742637
vt 0.0000000e+0 0.78548547
vt 5.5511151e-17 0.53317610
vt 3.7190739e-2 0.0000000e+0
vt 0.12385002 1.00000000
vt 0.16319458 0.49821618
vt 0.23025935 0.26948812
vt 0.24770005 0.78548547
vt 0.24770005 0.53317610
vt 0.24770005 0.99938247
vt 0.24770005 0.75168242
vt 0.29973162 3.6511318e-2
vt 0.37385473 0.53317610
vt 0.43082256 0.53317610
vt 0.46514382 0.27043728
vt 0.46514382 0.47454566
vt 0.46695566 0.20958085
vt 0.50000942 0.53317610
vt 0.50000942 0.75168242
vt 0.50000942 0.96619695
vt 0.50000942 0.99938247
vt 0.62385944 0.75168242
vt 0.62616410 0.75168242
vt 0.66270946 3.8476157e-4
vt 0.69977729 0.24065662
vt 0.73503922 0.47639122
vt 0.74770947 0.96619695
vt 0.75231879 0.53317610
vt 0.92777670 0.0000000e+0
vt 0.92816862 0.26999974
vn -0.50000000 1.6301370e-10 0.86602540
vn -0.39881530 0.80238868 0.44398059
vn -1.00000000 1.5487678e-10 -1.3449452e-10
vn -0.39881530 -0.15112602 -0.90449283
vn 0.0000000e+0 0.81649658 -0.57735027
vn 0.50000000 4.9908618e-10 -0.86602540
vn -2.4884968e-17 -0.81649658 0.57735027
vn -0.50000000 -0.81649658 -0.28867513
vn 0.39881530 -0.80238868 -0.44398059
vn 0.50000000 0.81649658 0.28867513
vn 0.39881530 0.15112602 0.90449283
vn 1.00000000 1.5487676e-10 -1.3449451e-10
g tetrahedron8_tetrahedron8_auv
usemtl tetrahedron8_auv
s 1
f 1/11/1 11/19/11 2/10/2
f 2/26/2 3/25/3 1/30/1
f 2/26/2 5/16/5 3/25/3
f 2/18/2 10/28/10 5/23/5
f 2/10/2 11/19/11 10/21/10
f 3/25/3 5/16/5 4/17/4
f 3/25/3 7/29/7 1/30/1
f 3/25/3 8/24/8 7/29/7
f 4/17/4 8/24/8 3/25/3
f 4/8/4 9/3/9 8/9/8
f 5/5/5 6/2/6 4/8/4
f 5/14/5 12/7/12 6/15/6
f 6/2/6 9/3/9 4/8/4
f 6/15/6 12/7/12 9/12/9
f 7/13/7 11/19/11 1/11/1
f 7/4/7 12/7/12 11/1/11
f 8/27/8 9/20/9 7/22/7
f 9/12/9 12/7/12 7/4/7
f 10/6/10 12/7/12 5/14/5
f 11/1/11 12/7/12 10/6/10
